<svg width="192" height="192" viewBox="0 0 192 192" fill="none" xmlns="http://www.w3.org/2000/svg">
  <rect width="192" height="192" rx="40" fill="url(#gradient)"/>
  <path d="M96 96C84 80.6 72 72 60 72C48 72 38 82 38 94C38 106 48 116 60 116C72 116 84 107.4 96 96ZM96 96C108 111.4 120 120 132 120C144 120 154 110 154 98C154 86 144 76 132 76C120 76 108 84.6 96 96Z" stroke="white" stroke-width="10" stroke-linecap="round"/>
  <defs>
    <linearGradient id="gradient" x1="0" y1="0" x2="192" y2="192" gradientUnits="userSpaceOnUse">
      <stop stop-color="#6366f1"/>
      <stop offset="0.5" stop-color="#8b5cf6"/>
      <stop offset="1" stop-color="#a855f7"/>
    </linearGradient>
  </defs>
</svg>
